<svg xmlns="http://www.w3.org/2000/svg" width="350" height="120" preserveAspectRatio="xMidYMid meet"><rect id="backgroundrect" width="100%" height="100%" x="0" y="0" fill="none" stroke="none"/>

 <g style="">
  <title>background</title>
  <rect fill="none" id="canvas_background" height="120" width="350" y="-1" x="-1"/>
 </g>
 <g style="" class="currentLayer">
  <title>Layer 1</title>
  
  <g id="svg_7" class="sampleTexts_1">
   <g id="svg_8" fill="#ffffff" class="logo--name svgLogoName_1 logoNameBox" stroke-width="0">
    <path id="svg_9" d="m136.15670934761312,56.30671680373209 l6.7200000286102295,12.642000053822995 l-6.9552000296115875,0 l-8.34960003554821,-15.548400066196919 l-5.628000023961067,0.0672000002861046 l0,15.481200065910816 l-6.106800025999545,0 l0,-40.16040017098189 l-2.1756000092625616,0 l0,42.33600018024445 l10.525200044810772,0 l0,-15.540000066161156 l2.116800009012222,0 l8.282400035262107,15.540000066161156 l11.919600050747395,0 l-8.34960003554821,-15.607200066447257 l-1.9992000085115431,0.7896000033617085 zm-16.203600068986415,-25.34280010789633 l8.526000036299228,0 l0,0 q6.594000028073787,0 10.164000043272972,2.872800012230875 l0,0 l0,0 q3.561600015163422,2.872800012230875 3.561600015163422,8.257200035154819 l0,0 l0,0 q0,4.897200020849705 -2.8056000119447706,7.8036000332236295 l0,0 l0,0 q-2.8140000119805335,2.898000012338162 -7.95480003386736,3.4440000146627425 l0,0 l-1.6380000069737437,0.1848000007867814 l7.560000032186508,13.969200059473513 l2.486400010585785,0 l-6.594000028073787,-12.280800052285196 l0,0 q11.130000047385693,-1.9320000082254412 11.130000047385693,-13.120800055861475 l0,0 l0,0 q0,-3.687600015699865 -1.5792000067234042,-6.711600028574467 l0,0 l0,0 q-3.687600015699865,-6.594000028073787 -14.330400061011312,-6.594000028073787 l0,0 l-10.70160004556179,0 l0,38.64840016454458 l2.1756000092625616,0 l0,-36.47280015528202 zm1.9908000084757806,20.5632000875473 l6.048000025749206,0 l0,0 q6.232800026535988,0 9.22320003926754,-2.2092000094056132 l0,0 l0,0 q2.9988000127673153,-2.2008000093698503 2.9988000127673153,-6.9216000294685385 l0,0 l0,0 q0,-4.4772000190615655 -2.872800012230875,-6.9216000294685385 l0,0 l0,0 q-2.872800012230875,-2.4528000104427337 -7.83720003336668,-2.4528000104427337 l0,0 l-7.618800032436848,0 l0,6.3504000270366685 l6.9552000296115875,0 l0,0 q4.838400020599365,0 4.838400020599365,2.7216000115871433 l0,0 l0,0 q0,3.1416000133752826 -6.048000025749206,3.1416000133752826 l0,0 l-3.502800014913082,0 l0,-3.746400015950203 l-2.242800009548664,0 l0,5.930400025248527 l5.745600024461746,0 l0,0 q8.223600035011767,0 8.223600035011767,-5.325600022673607 l0,0 l0,0 q0,-1.6296000069379808 -0.7812000033259392,-2.6040000110864643 l0,0 l0,0 q-1.5120000064373016,-2.2344000095129015 -6.232800026535988,-2.2344000095129015 l0,0 l-4.7124000200629235,0 l0,-2.058000008761883 l5.376000022888184,0 l0,0 q4.057200017273426,0 6.291600026786328,1.8732000079751017 l0,0 l0,0 q2.242800009548664,1.8816000080108646 2.242800009548664,5.325600022673607 l0,0 l0,0 q0,7.0140000298619265 -10.046400042772294,7.0140000298619265 l0,0 l-6.048000025749206,0 l0,2.116800009012222 zm26.980800114870068,19.59720008343458 l0,-42.21840017974377 l2.1756000092625616,0 l0,40.04280017048121 l23.158800098598004,0 l0,-6.048000025749206 l-17.052000072598457,0 l0,-5.804400024712086 l2.1756000092625616,0 l0,3.6288000154495252 l17.06040007263422,0 l0,10.39920004427433 l-27.518400117158887,0 zm4.107600017488004,-20.37840008676052 l0,-21.840000092983246 l23.108400098383427,0 l0,10.348800044059754 l-14.515200061798097,0 l0,-2.1840000092983245 l12.33120005249977,0 l0,-5.980800025463104 l-18.74880007982254,0 l0,17.472000074386596 l14.095200060009958,0 l0,2.1840000092983245 l-16.270800069272518,0 zm0,16.329600069522858 l0,-14.397600061297418 l18.38760007828474,0 l0,-6.048000025749206 l-14.212800060510636,0 l0,-13.725600058436394 l14.632800062298776,0 l0,2.1756000092625616 l-12.457200053036212,0 l0,9.37440003991127 l14.212800060510636,0 l0,10.39920004427433 l-18.38760007828474,0 l0,10.03800004273653 l16.934400072097777,0 l0,2.1840000092983245 l-19.11000008136034,0 zm32.961600140333175,-6.837600029110909 l1.6968000072241023,0.9072000038623811 l0,0 q4.4772000190615655,1.9992000085115431 7.736400032937527,1.9992000085115431 l0,0 l0,0 q1.6380000069737437,0 2.058000008761883,-0.24360000103712307 l0,0 l0,0 q2.058000008761883,-0.5460000023245953 2.965200012624264,-2.360400010049343 l0,0 l0.058800000250340226,-0.11760000050068105 l0,0 q0.4284000018239071,-0.7896000033617085 0.4284000018239071,-2.058000008761883 l0,0 l0,0 q0,-0.6048000025749297 -0.3696000015735628,-1.5120000064373016 l0,0 l-0.11760000050068105,-0.24360000103712307 l0,0 q-1.0920000046491622,-2.2344000095129015 -5.745600024461746,-3.746400015950203 l0,0 l-0.6048000025749297,-0.1848000007867814 l-0.1848000007867814,-0.058800000250340226 l0,0 q-7.316400031149388,-2.1756000092625616 -9.550800040662288,-6.9552000296115875 l0,0 l0,0 q-0.9072000038623811,-1.8144000077247622 -0.9072000038623811,-3.9900000169873238 l0,0 l0,0 q0,-2.242800009548664 0.9072000038623811,-4.4772000190615655 l0,0 l0.11760000050068105,-0.24360000103712307 l0,0 q2.058000008761883,-4.116000017523766 6.594000028073787,-5.5020000234246265 l0,0 l0,0 q3.3852000144124035,-0.4872000020742459 3.6288000154495252,-0.4872000020742459 l0,0 l0,0 q6.165600026249885,0 14.271600060760974,5.023200021386147 l0,0 l1.150800004899502,-1.8732000079751017 l0,0 q-8.76960003733635,-5.325600022673607 -15.363600065410136,-5.325600022673607 l0,0 l0,0 q-2.7804000118374823,0 -4.233600018024444,0.6048000025749297 l0,0 l0,0 q-5.3844000229239475,1.4532000061869619 -7.9800000339746475,6.594000028073787 l0,0 l-0.1848000007867814,0.42000000178813934 l0,0 q-1.0836000046133996,2.6628000113368033 -1.0836000046133996,5.266800022423267 l0,0 l0,0 q0,2.7804000118374823 1.0836000046133996,4.956000021100045 l0,0 l0,0 q2.7804000118374823,5.628000023961067 10.945200046598911,8.047200034260749 l0,0 l0.7308000031113626,0.23520000100135804 l0,0 q3.687600015699865,1.150800004899502 4.4772000190615655,2.6040000110864643 l0,0 l0.058800000250340226,0.11760000050068105 l0,0 q0.17640000075101891,0.302400001287468 0.17640000075101891,0.7308000031113626 l0,0 l0,0 q0,0.7812000033259392 -0.23520000100135804,1.2096000051498412 l0,0 l0,0 q-0.6720000028610303,1.4532000061869619 -3.0912000131607056,1.4532000061869619 l0,0 l0,0 q-4.292400018274784,0 -9.248400039374829,-3.208800013661385 l0,0 l-0.9072000038623811,-0.5460000023245953 l-5.325600022673607,8.593200036585332 l0.9072000038623811,0.5376000022888312 l0,0 q3.208800013661385,2.1840000092983245 7.165200030505656,3.452400014698506 l0,0 l0,0 q3.964800016880035,1.2684000054001807 7.408800031542778,1.2684000054001807 l0,0 l0,0 q2.301600009799004,0 4.174800017774105,-0.5460000023245953 l0,0 l0,0 q5.325600022673607,-1.5120000064373016 7.98840003401041,-6.652800028324127 l0,0 l0.23520000100135804,-0.42000000178813934 l0,0 q1.0920000046491622,-2.7804000118374823 1.0920000046491622,-5.266800022423267 l0,0 l0,0 q0,-2.04960000872612 -1.3944000059366228,-5.5020000234246265 l0,0 l0,0 q-2.4780000105500224,-4.897200020849705 -10.458000044524669,-7.434000031650066 l0,0 l-0.8484000036120416,-0.24360000103712307 l0,0 q-2.4780000105500224,-0.7896000033617085 -3.3852000144124035,-1.5120000064373016 l0,0 l0,0 q-1.0332000043988228,-0.8484000036120416 -1.3356000056862831,-1.2684000054001807 l0,0 l-0.11760000050068105,-0.6720000028610303 l0,0 q0,-0.9660000041127206 0.42000000178813934,-1.5708000066876413 l0,0 l0,0 q0.3696000015735628,-0.6636000028252668 0.9072000038623811,-0.9072000038623811 l0,0 l0,0 q0.5460000023245953,-0.24360000103712307 1.9992000085115431,-0.24360000103712307 l0,0 l0,0 q4.292400018274784,0 9.25680003941059,3.208800013661385 l0,0 l0.9072000038623811,0.5460000023245953 l3.259200013875961,-5.199600022137165 l-0.9660000041127206,-0.5460000023245953 l0,0 q-2.7804000118374823,-1.8144000077247622 -6.224400026500225,-2.965200012624264 l0,0 l0,0 q-3.452400014698506,-1.150800004899502 -6.174000026285648,-1.150800004899502 l0,0 l0,0 q-2.4192000102996825,0 -3.2004000136256217,0.4284000018239071 l0,0 l0,0 q-3.7548000159859654,1.0836000046133996 -5.569200023710728,4.6536000198125835 l0,0 l0,0 q-0.7812000033259392,1.5120000064373016 -0.7812000033259392,3.746400015950203 l0,0 l0,0 q0,1.6968000072241023 0.7224000030756,3.267600013911724 l0,0 l0,0 q1.8732000079751017,4.057200017273426 8.526000036299228,6.048000025749206 l0,0 l0.7896000033617085,0.24360000103712307 l1.6296000069379808,0.6048000025749297 l0,0 q1.2684000054001807,0.4872000020742459 2.965200012624264,1.4532000061869619 l0,0 l0,0 q2.906400012373924,1.6884000071883207 2.906400012373924,4.956000021100045 l0,0 l0,0 q0,1.8144000077247622 -0.8484000036120416,3.3852000144124035 l0,0 l0,0 q-1.9404000082612036,3.393600014448166 -6.476400027573109,3.393600014448166 l0,0 l0,0 q-3.024000012874603,0 -8.702400037050246,-2.301600009799004 l0,0 l-1.0332000043988228,1.7556000074744373 l-0.058800000250340226,0.11760000050068105 l0,0 q5.140800021886825,2.6040000110864643 9.861600041985511,2.6040000110864643 l0,0 l0,0 q2.654400011301041,0 4.838400020599365,-1.0920000046491622 l0,0 l0,0 q2.1756000092625616,-1.02480000436306 3.3852000144124035,-3.116400013267994 l0,0 l0,0 q1.2096000051498412,-2.0832000088691713 1.2096000051498412,-4.804800020456314 l0,0 l0,0 q0,-2.058000008761883 -0.6972000029683231,-3.5700000151991844 l0,0 l0,0 q-0.6972000029683231,-1.5120000064373016 -2.1756000092625616,-2.5368000108003614 l0,0 l0,0 q-1.4868000063300133,-1.0332000043988228 -2.7216000115871433,-1.6044000068306925 l0,0 l0,0 q-1.2432000052928924,-0.5712000024318696 -3.4776000148057933,-1.3608000057935716 l0,0 l-0.7896000033617085,-0.24360000103712307 l0,0 q-5.686800024211406,-1.6884000071883207 -7.131600030362606,-4.838400020599365 l0,0 l0,0 q-0.5460000023245953,-1.0836000046133996 -0.5460000023245953,-2.4192000102996825 l0,0 l0,0 q0,-1.6884000071883207 0.6048000025749297,-2.8392000120878222 l0,0 l0,0 q1.4532000061869619,-2.6628000113368033 4.174800017774105,-3.452400014698506 l0,0 l2.4192000102996825,-0.302400001287468 l0,0 q4.7712000203132625,0 10.516800044775009,3.208800013661385 l0,0 l-0.9660000041127206,1.5120000064373016 l0,0 q-5.922000025212765,-2.906400012373924 -9.37440003991127,-2.906400012373924 l0,0 l0,0 q-1.6884000071883207,0 -2.116800009012222,0.24360000103712307 l0,0 l0,0 q-1.9908000084757806,0.5460000023245953 -2.965200012624264,2.4192000102996825 l0,0 l-0.058800000250340226,0.12600000053644353 l0,0 q-0.42000000178813934,0.7812000033259392 -0.42000000178813934,2.1756000092625616 l0,0 l0,0 q0,0.9660000041127206 0.302400001287468,1.4532000061869619 l0,0 l0,0 q1.2096000051498412,2.4780000105500224 6.106800025999545,3.931200016736984 l0,0 l0.7896000033617085,0.23520000100135804 l1.5120000064373016,0.4872000020742459 l0,0 q0.47880000203848216,0.1848000007867814 2.898000012338162,1.3272000056505204 l0,0 l0,0 q3.5700000151991844,1.9992000085115431 5.023200021386147,5.023200021386147 l0,0 l0,0 q0.9072000038623811,1.8144000077247622 0.9072000038623811,3.9900000169873238 l0,0 l0,0 q0,2.6628000113368033 -0.9660000041127206,4.5360000193119046 l0,0 l-0.12600000053644353,0.24360000103712307 l0,0 q-2.058000008761883,4.116000017523766 -6.594000028073787,5.5020000234246265 l0,0 l0,0 q-3.3852000144124035,0.4872000020742459 -3.6288000154495252,0.4872000020742459 l0,0 l0,0 q-4.6536000198125835,0 -10.76040004581213,-2.906400012373924 l0,0 l-1.6968000072241023,-0.9072000038623811 l3.024000012874603,-4.897200020849705 zm35.92680015295744,0.058800000250340226 l-3.0828000131249427,7.081200030148029 l2.6628000113368033,0 l2.116800009012222,-5.082000021636486 l15.783600067198275,0.058800000250340226 l3.8724000164866452,8.76960003733635 l11.12160004734993,-0.058800000250340226 l-19.05120008111,-42.277200179994104 l-3.864000016450883,0 l-18.93360008060932,42.277200179994104 l11.793600050210951,0 l2.058000008761883,-4.838400020599365 l12.037200051248073,0 l-0.9072000038623811,-2.058000008761883 l-12.465600053071975,0 l-1.9320000082254412,4.779600020349026 l-7.198800030648709,0 l16.75800007134676,-38.10240016222 l1.4448000061511994,0 l16.8168000715971,38.10240016222 l-6.409200027287007,0 l-3.8724000164866452,-8.652000036835672 l-18.74880007982254,0 zm14.935200063586237,-3.5700000151991844 l-10.81920004606247,0 l7.375200031399726,-17.59800007492304 l12.398400052785874,28.18200011998415 l2.4780000105500224,0 l-14.876400063335897,-33.1380001410842 l-10.886400046348573,24.43560010403395 l17.5392000746727,0 l-6.652800028324127,-14.700000062584877 l-4.5948000195622445,11.071200047135353 l2.360400010049343,0 l2.2344000095129015,-5.510400023460389 l3.4440000146627425,7.257600030899049 zm51.8952002209425,-23.704800100922583 l0,20.865600088834764 l-24.738000105321408,-25.099200106859207 l-3.024000012874603,0 l29.937600127458573,30.424800129532812 l0,-26.19120011150837 l-2.1756000092625616,0 zm-4.174800017774105,13.666800058186054 l2.1756000092625616,2.360400010049343 l0,-18.14400007724762 l6.174000026285648,0 l0,38.043600161969664 l-1.0332000043988228,0 l-0.23520000100135804,-0.24360000103712307 l-27.70320011794567,-28.06440011948347 l0,30.483600129783152 l6.3504000270366685,0 l0,-17.84160007596016 l-2.2344000095129015,-2.301600009799004 l0,17.967600076496602 l-1.9404000082612036,0 l0,-22.982400097846984 l25.099200106859207,25.158000107109547 l3.8724000164866452,0 l0,-42.33600018024445 l-10.525200044810772,0 l0,17.9004000762105 zm-24.738000105321408,24.43560010403395 l2.116800009012222,0 l0,-35.38080015063286 l28.971600123345855,29.391600125133994 l0,-3.2004000136256217 l-31.08840013235807,-31.39080013364553 l0,40.58040017277003 zm52.92000022530556,-3.9900000169873238 l0,-30.483600129783152 l14.456400061547757,0 l0,-5.745600024461746 l-25.70400010943413,0 l0,1.8732000079751017 l23.646000100672243,0 l0,2.1756000092625616 l-25.821600109934806,0 l0,-6.224400026500225 l30.055200127959253,0 l0,10.09680004298687 l-14.448000061511992,0 l0,28.308000120520592 l-2.1840000092983245,0 zm-4.048800017237664,3.9900000169873238 l0,-32.29800013750792 l-9.37440003991127,0 l0,-2.1756000092625616 l11.550000049173832,0 l0,32.239200137257576 l6.048000025749206,0 l0,-28.190400120019916 l2.1756000092625616,0 l0,30.424800129532812 l-10.39920004427433,0 z" stroke-width="0"/>
   </g>
   <g fill="#ffffff" class="logo--name svgSloganText_1 sloganBox" id="svg_10" stroke-width="0">
    <path id="svg_11" d="m113.66150053602004,99.16351493541259 l0.6468000027537437,-1.3776000058650972 l0,0 q2.2344000095129015,1.17600000500679 4.368000018596649,1.17600000500679 l0,0 l0,0 q2.486400010585785,0 2.906400012373924,-1.5792000067234042 l0,0 l0,0 q0.13440000057220758,-0.5292000022530556 0.13440000057220758,-1.2012000051140788 l0,0 l0,-0.386400001645093 l0,0 q0,-0.6888000029325578 -0.09240000039339066,-1.1172000047564508 l0,0 l0,0 q-0.10080000042915346,-0.42000000178813934 -0.42000000178813934,-0.6888000029325578 l0,0 l0,0 q-0.5040000021457672,-0.43680000185967477 -2.4192000102996825,-0.7308000031113626 l0,0 l0,0 q-1.7052000072598457,-0.2688000011444152 -2.35200001001358,-0.5040000021457672 l0,0 l0,0 q-0.6468000027537437,-0.23520000100135804 -1.066800004541874,-0.5208000022172928 l0,0 l0,0 q-0.42000000178813934,-0.277200001180172 -0.7140000030398442,-0.7056000030040873 l0,0 l0,0 q-0.6132000026106952,-0.8820000037551 -0.6132000026106952,-2.444400010406971 l0,0 l0,-0.10080000042915346 l0,0 q0,-3.2508000138401987 2.696400011479855,-3.889200016558174 l0,0 l0,0 q0.8568000036478142,-0.19320000082254657 1.9404000082612036,-0.19320000082254657 l0,0 l0.13440000057220758,0 l0,0 q2.5284000107645985,0 4.132800017595291,0.7224000030756 l0,0 l-0.51240000218153,1.5120000064373016 l0,0 q-1.9404000082612036,-0.840000003576286 -3.578400015234947,-0.840000003576286 l0,0 l-0.08400000035762822,0 l0,0 q-1.8060000076889997,0 -2.4780000105500224,0.6804000028967941 l0,0 l0,0 q-0.5712000024318696,0.5712000024318696 -0.5712000024318696,1.9740000084042548 l0,0 l0,0.04200000017881411 l0,0 q0,1.6044000068306925 0.8820000037551,2.108400008976459 l0,0 l0,0 q0.5964000025391663,0.32760000139475765 2.1504000091552733,0.5712000024318696 l0,0 l0,0 q1.5540000066161168,0.24360000103712307 2.3100000098347664,0.42000000178813934 l0,0 l0,0 q0.7560000032186581,0.16800000071525756 1.2852000054717063,0.5628000023961157 l0,0 l0,0 q1.1088000047206878,0.8232000035047536 1.1088000047206878,3.1416000133752826 l0,0 l0,0.12600000053644353 l0,0 q0,3.5364000150561328 -2.847600012123589,4.216800017952918 l0,0 l0,0 q-0.8736000037193364,0.2100000008940716 -1.654800007045269,0.2100000008940716 l0,0 l0,0 q-0.772800003290186,0 -1.4112000060081484,-0.05040000021457774 l0,0 l0,0 q-0.6384000027179719,-0.05040000021457774 -1.2936000055074692,-0.19320000082254657 l0,0 l0,0 q-1.545600006580353,-0.3108000013232293 -2.5872000110149385,-0.9408000040054326 l0,0 zm12.768000054359435,-4.838400020599365 l0,0 l0,0 q0,-2.2344000095129015 0.21840000092983294,-3.116400013267994 l0,0 l0,0 q0.2268000009655954,-0.8904000037908556 0.5628000023961157,-1.4028000059723855 l0,0 l0,0 q0.32760000139475765,-0.5208000022172928 0.8904000037908556,-0.8652000036835849 l0,0 l0,0 q1.1172000047564508,-0.6972000029683231 3.318000014126301,-0.6972000029683231 l0,0 l0,0 q3.1668000134825705,0 4.074000017344951,1.5624000066518788 l0,0 l0,0 q0.5376000022888312,0.9492000040411956 0.6216000026464594,2.6712000113725662 l0,0 l0,0 q0.025200000107288595,0.8148000034690002 0.025200000107288595,1.7976000076532368 l0,0 l0,0 q0,0.9912000042200088 -0.058800000250340226,1.8396000078320502 l0,0 l0,0 q-0.0672000002861046,0.8484000036120416 -0.25200000107288695,1.5288000065088276 l0,0 l0,0 q-0.19320000082254657,0.6804000028967941 -0.5208000022172928,1.1844000050425532 l0,0 l0,0 q-0.3360000014305151,0.51240000218153 -0.8904000037908556,0.8568000036478142 l0,0 l0,0 q-1.0836000046133996,0.6636000028252668 -3.158400013446808,0.6636000028252668 l0,0 l0,0 q-3.1080000132322314,0 -4.0824000173807145,-1.5288000065088276 l0,0 l0,0 q-0.6048000025749297,-0.9576000040769578 -0.7056000030040873,-2.679600011408329 l0,0 l0,0 q-0.04200000017881411,-0.831600003540529 -0.04200000017881411,-1.8144000077247622 zm2.6712000113725662,4.107600017488004 l0,0 l0,0 q0.35280000150204077,0.2688000011444152 0.8904000037908556,0.39480000168086077 l0,0 l0,0 q0.5376000022888312,0.13440000057220758 1.4700000062584877,0.13440000057220758 l0,0 l0,0 q0.9324000039696694,0 1.5624000066518788,-0.2604000011086508 l0,0 l0,0 q0.6384000027179719,-0.2688000011444152 0.9576000040769578,-0.8568000036478142 l0,0 l0,0 q0.31920000135898996,-0.5880000025034093 0.4032000017166138,-1.5204000064730647 l0,0 l0,0 q0.08400000035762822,-0.9324000039696694 0.08400000035762822,-2.1756000092625616 l0,0 l0,0 q0,-1.2432000052928924 -0.0756000003218651,-2.0664000087976455 l0,0 l0,0 q-0.0756000003218651,-0.8232000035047536 -0.3696000015735628,-1.3692000058293343 l0,0 l0,0 q-0.5880000025034093,-1.058400004506111 -2.629200011193752,-1.058400004506111 l0,0 l0,0 q-2.1504000091552733,0 -2.8056000119447706,1.058400004506111 l0,0 l0,0 q-0.31920000135898996,0.5460000023245953 -0.4116000017523768,1.3776000058650972 l0,0 l0,0 q-0.08400000035762822,0.840000003576286 -0.08400000035762822,1.8228000077605246 l0,0 l0,0 q0,0.982800004184246 0.025200000107288595,1.6716000071168096 l0,0 l0,0 q0.016800000071525576,0.6804000028967941 0.12600000053644353,1.2264000052213668 l0,0 l0,0 q0.10080000042915346,0.5460000023245953 0.302400001287468,0.9492000040411956 l0,0 l0,0 q0.2016000008583069,0.4032000017166138 0.554400002360344,0.6720000028610303 zm14.641200062334537,-13.792800058722497 l0,0 l0,0 q-0.7560000032186581,0 -1.150800004899502,0.32760000139475765 l0,0 l0,0 q-0.39480000168086077,0.3360000014305151 -0.39480000168086077,1.3020000055432321 l0,0 l0,0 q0,0.9660000041127206 0.36120000153779985,2.167200009226799 l0,0 l2.7888000118732457,0 l0,1.3692000058293343 l-2.8056000119447706,0 l0,10.348800044059754 l-1.5876000067591671,0 l0,-10.348800044059754 l-1.9572000083327294,0 l0,-1.2096000051498412 l1.9404000082612036,-0.159600000679495 l0,0 q-0.12600000053644353,-0.2604000011086508 -0.24360000103712307,-1.150800004899502 l0,0 l0,0 q-0.11760000050068105,-0.8820000037551 -0.11760000050068105,-1.2684000054001807 l0,0 l0,0 q0,-2.797200011909008 3.267600013911724,-2.797200011909008 l0,0 l0,0 q1.17600000500679,0 2.2344000095129015,0.2604000011086508 l0,0 l-0.302400001287468,1.461600006222725 l0,0 q-1.2768000054359436,-0.302400001287468 -2.0328000086545943,-0.302400001287468 zm10.06320004284382,13.675200058221819 l0.554400002360344,1.2768000054359436 l0,0 q-1.6044000068306925,0.7560000032186581 -2.956800012588502,0.7560000032186581 l0,0 l0,0 q-2.4612000104784966,0 -2.797200011909008,-2.1000000089406967 l0,0 l0,0 q-0.08400000035762822,-0.5040000021457672 -0.08400000035762822,-1.461600006222725 l0,0 l0,-6.980400029718877 l-1.4112000060081484,0 l0,-1.2096000051498412 l1.4112000060081484,-0.159600000679495 l0.2604000011086508,-2.6712000113725662 l1.3692000058293343,0 l0,2.6712000113725662 l3.4104000145196913,0 l0,1.3692000058293343 l-3.4104000145196913,0 l0,6.9552000296115875 l0,0 q0,1.2096000051498412 0.17640000075101891,1.545600006580353 l0,0 l0,0 q0.32760000139475765,0.6048000025749297 1.3020000055432321,0.6048000025749297 l0,0 l0,0 q0.9744000041484836,0 2.1756000092625616,-0.5964000025391663 l0,0 zm5.560800023674965,1.8396000078320502 l-3.6456000155210493,-11.718000049889087 l1.7556000074744373,0 l2.4780000105500224,8.610000036656857 l0.44520000189543196,1.8816000080108646 l0.31920000135898996,-1.5792000067234042 l2.5620000109076497,-8.912400037944316 l1.612800006866455,0 l2.520000010728836,8.610000036656857 l0.43680000185967477,1.8984000080823897 l0.3108000013232293,-1.6044000068306925 l2.444400010406971,-8.904000037908554 l1.7724000075459476,0 l-3.469200014770031,11.718000049889087 l-2.1504000091552733,0 l-2.242800009548664,-7.509600031971931 l-0.45360000193119054,-2.301600009799004 l-0.4032000017166138,2.301600009799004 l-2.2344000095129015,7.509600031971931 l-2.058000008761883,0 zm25.05720010668039,-7.828800033330918 l0,3.6708000156283402 l0,0 q0,1.9656000083685072 0.1848000007867814,4.0824000173807145 l0,0 l-1.4532000061869619,0.11760000050068105 l-0.24360000103712307,-1.3692000058293343 l0,0 q-1.2516000053286553,0.9996000042557781 -3.309600014090538,1.3944000059366228 l0,0 l0,0 q-0.6720000028610303,0.12600000053644353 -1.1928000050783156,0.12600000053644353 l0,0 l0,0 q-0.5208000022172928,0 -0.9156000038981504,-0.04200000017881411 l0,0 l0,0 q-0.4032000017166138,-0.05040000021457774 -0.772800003290186,-0.19320000082254657 l0,0 l0,0 q-0.3696000015735628,-0.1428000006079674 -0.6804000028967941,-0.4032000017166138 l0,0 l0,0 q-0.31920000135898996,-0.25200000107288695 -0.554400002360344,-0.6804000028967941 l0,0 l0,0 q-0.5040000021457672,-0.8904000037908556 -0.5040000021457672,-2.1504000091552733 l0,0 l0,0 q0,-1.2516000053286553 0.1848000007867814,-1.9488000082969668 l0,0 l0,0 q0.1848000007867814,-0.6888000029325578 0.6048000025749297,-1.150800004899502 l0,0 l0,0 q0.840000003576286,-0.9156000038981504 2.8140000119805335,-0.9156000038981504 l0,0 l0,0 q1.9824000084400175,0 4.225200017988682,0.7476000031829007 l0,0 l0,-1.2852000054717063 l0,0 q0,-2.133600009083748 -1.7640000075102007,-2.5284000107645985 l0,0 l0,0 q-0.5712000024318696,-0.12600000053644353 -1.3104000055789948,-0.12600000053644353 l0,0 l0,0 q-1.6800000071525578,0 -3.4944000148773195,0.6720000028610303 l0,0 l-0.36120000153779985,-1.4196000060439111 l0,0 q0.5040000021457672,-0.3360000014305151 2.5620000109076497,-0.6048000025749297 l0,0 l0,0 q0.6468000027537437,-0.0756000003218651 1.5540000066161168,-0.0756000003218651 l0,0 l0,0 q0.9156000038981504,0 1.7892000076174734,0.21840000092983294 l0,0 l0,0 q0.8736000037193364,0.21840000092983294 1.461600006222725,0.7056000030040873 l0,0 l0,0 q1.17600000500679,0.9744000041484836 1.17600000500679,3.158400013446808 l0,0 zm-1.654800007045269,2.5116000106930736 l0,0 l0,0 q-2.301600009799004,-0.579600002467639 -4.25040001809597,-0.579600002467639 l0,0 l0,0 q-1.2012000051140788,0 -1.5960000067949296,0.6888000029325578 l0,0 l0,0 q-0.2604000011086508,0.47880000203848216 -0.2604000011086508,1.4280000060796738 l0,0 l0,0 q0,0.9408000040054326 0.10080000042915346,1.3692000058293343 l0,0 l0,0 q0.10080000042915346,0.42000000178813934 0.3360000014305151,0.6972000029683231 l0,0 l0,0 q0.46200000196695695,0.5208000022172928 1.5288000065088276,0.5208000022172928 l0,0 l0,0 q1.663200007081032,0 3.3012000140547753,-0.8568000036478142 l0,0 l0,0 q0.4956000021100048,-0.25200000107288695 0.8988000038266186,-0.5712000024318696 l0,0 l0,0 q-0.058800000250340226,-1.058400004506111 -0.058800000250340226,-2.696400011479855 zm10.315200043916702,-4.97280002117157 l0,0 l0,0 q-1.260000005364418,0 -2.5620000109076497,1.260000005364418 l0,0 l0,9.030000038444996 l-1.6380000069737437,0 l0,-11.718000049889087 l1.4364000061154365,0 l0.159600000679495,1.5624000066518788 l0,0 q0.46200000196695695,-0.7224000030756 0.9996000042557781,-1.1256000047922134 l0,0 l0,0 q0.5376000022888312,-0.4032000017166138 0.8820000037551,-0.4956000021100048 l0,0 l0,0 q0.4872000020742459,-0.13440000057220758 0.9324000039696694,-0.13440000057220758 l0,0 l0,0 q0.44520000189543196,0 1.1172000047564508,0.17640000075101891 l0,0 l-0.1512000006437302,1.5624000066518788 l0,0 q-0.5040000021457672,-0.11760000050068105 -1.17600000500679,-0.11760000050068105 zm12.90240005493164,8.265600035190582 l0.47880000203848216,1.4028000059723855 l0,0 q-2.0412000086903572,0.8148000034690002 -4.49400001913309,0.8148000034690002 l0,0 l0,0 q-1.4280000060796738,0 -2.4276000103354454,-0.29400000125170106 l0,0 l0,0 q-1.5792000067234042,-0.45360000193119054 -2.108400008976459,-1.8648000079393388 l0,0 l0,0 q-0.47880000203848216,-1.3356000056862831 -0.47880000203848216,-3.939600016772747 l0,0 l0,-0.5040000021457672 l0,0 q0,-3.116400013267994 1.3020000055432321,-4.376400018632412 l0,0 l0,0 q1.1676000049710276,-1.1256000047922134 3.9060000166296964,-1.1256000047922134 l0,0 l0,0 q2.6712000113725662,0 3.6456000155210493,1.3188000056147575 l0,0 l0,0 q0.4704000020027163,0.6384000027179719 0.6216000026464594,1.5540000066161168 l0,0 l0,0 q0.1512000006437302,0.9072000038623811 0.1512000006437302,1.7304000073671344 l0,0 l0,0 q0,1.2936000055074692 -0.058800000250340226,1.9992000085115431 l0,0 l0,0 q-1.3860000059008608,0.058800000250340226 -2.486400010585785,0.058800000250340226 l0,0 l0,0 q0,0 -1.5876000067591671,0 l0,0 l0,0 q-2.4780000105500224,0 -3.8220000162720678,-0.2100000008940716 l0,0 l0,0 q0,2.25960000962019 0.5712000024318696,3.158400013446808 l0,0 l0,0 q0.6972000029683231,1.0920000046491622 2.7888000118732457,1.0920000046491622 l0,0 l0,0 q2.0832000088691713,0 3.9984000170230862,-0.8148000034690002 l0,0 zm-7.358400031328201,-4.5948000195622445 l6.291600026786328,0 l0,-0.9408000040054326 l0,0 q0,-1.545600006580353 -0.5964000025391663,-2.2092000094056132 l0,0 l0,0 q-0.6720000028610303,-0.7308000031113626 -2.3184000098705293,-0.7308000031113626 l0,0 l0,0 q-1.9656000083685072,0 -2.688000011444095,0.8568000036478142 l0,0 l0,0 q-0.6888000029325578,0.8148000034690002 -0.6888000029325578,3.024000012874603 l0,0 zm17.245200073421003,6.619200028181076 l0,-15.061200064122676 l8.534400036334992,0 l0,1.4532000061869619 l-6.854400029182434,0 l0,5.199600022137165 l5.527200023531914,0 l0,1.4448000061511994 l-5.527200023531914,0 l0,5.518800023496151 l7.123200030326844,0 l0,1.4448000061511994 l-8.803200037479401,0 zm17.1780000731349,-10.374000044167042 l0,0 l0,0 q-1.9152000081539156,0 -3.9060000166296964,1.1340000048279764 l0,0 l0,9.240000039339066 l-1.6296000069379808,0 l0,-11.718000049889087 l1.4364000061154365,0 l0.1512000006437302,1.2180000051856041 l0,0 q1.0752000045776366,-0.8820000037551 2.6712000113725662,-1.2516000053286553 l0,0 l0,0 q0.6468000027537437,-0.159600000679495 1.5288000065088276,-0.159600000679495 l0,0 l0,0 q0.8736000037193364,0 1.545600006580353,0.2016000008583069 l0,0 l0,0 q0.6636000028252668,0.2016000008583069 1.058400004506111,0.6468000027537437 l0,0 l0,0 q0.7224000030756,0.7980000033974648 0.7224000030756,2.906400012373924 l0,0 l0,8.156400034725667 l-1.654800007045269,0 l0,-7.854000033438205 l0,0 q0,-1.4196000060439111 -0.277200001180172,-1.8312000077962878 l0,0 l0,0 q-0.277200001180172,-0.4032000017166138 -0.6552000027895091,-0.5460000023245953 l0,0 l0,0 q-0.37800000160932906,-0.1428000006079674 -0.9912000042200088,-0.1428000006079674 zm15.430800065696241,-0.5292000022530556 l0,0 l0.1512000006437302,-0.8148000034690002 l1.4196000060439111,0 l0.008400000035763027,11.499600048959255 l0,0 q0,2.5284000107645985 -0.9912000042200088,3.687600015699865 l0,0 l0,0 q-1.066800004541874,1.2180000051856041 -3.595200015306473,1.2180000051856041 l0,0 l0,0 q-1.9656000083685072,0 -3.4944000148773195,-0.5292000022530556 l0,0 l0,0 q-0.386400001645093,-0.13440000057220758 -0.5880000025034093,-0.24360000103712307 l0,0 l0.51240000218153,-1.3860000059008608 l0,0 q0.17640000075101891,0.058800000250340226 0.5208000022172928,0.19320000082254657 l0,0 l0,0 q0.3444000014662789,0.13440000057220758 0.8232000035047536,0.2604000011086508 l0,0 l0,0 q1.2264000052213668,0.32760000139475765 2.242800009548664,0.32760000139475765 l0,0 l0,0 q1.0164000043272972,0 1.5708000066876413,-0.2100000008940716 l0,0 l0,0 q0.5460000023245953,-0.2016000008583069 0.8568000036478142,-0.6384000027179719 l0,0 l0,0 q0.51240000218153,-0.7308000031113626 0.51240000218153,-2.6460000112652784 l0,0 l0,-0.9408000040054326 l0,0 q-1.8816000080108646,1.3188000056147575 -3.9816000169515613,1.3188000056147575 l0,0 l0,0 q-2.444400010406971,0 -3.267600013911724,-1.7388000074028986 l0,0 l0,0 q-0.4704000020027163,-0.982800004184246 -0.5460000023245953,-2.486400010585785 l0,0 l0,0 q-0.033600000143052325,-0.6972000029683231 -0.033600000143052325,-1.5288000065088276 l0,0 l0,0 q0,-0.831600003540529 0.016800000071525576,-1.6716000071168096 l0,0 l0,0 q0.016800000071525576,-0.8484000036120416 0.12600000053644353,-1.5708000066876413 l0,0 l0,0 q0.10080000042915346,-0.7140000030398442 0.3360000014305151,-1.2936000055074692 l0,0 l0,0 q0.2268000009655954,-0.5712000024318696 0.6636000028252668,-0.9744000041484836 l0,0 l0,0 q0.8988000038266186,-0.840000003576286 2.763600011765957,-0.840000003576286 l0,0 l0,0 q1.8648000079393388,0 3.9732000169157984,1.0080000042915345 zm-0.05040000021457774,8.450400035977363 l0,-7.098000030219555 l0,0 q-1.7724000075459476,-0.8820000037551 -3.427200014591217,-0.8820000037551 l0,0 l0,0 q-1.2012000051140788,0 -1.5876000067591671,0.19320000082254657 l0,0 l0,0 q-0.37800000160932906,0.2016000008583069 -0.579600002467639,0.51240000218153 l0,0 l0,0 q-0.2016000008583069,0.31920000135898996 -0.3360000014305151,0.8652000036835849 l0,0 l0,0 q-0.2268000009655954,1.0332000043988228 -0.2268000009655954,3.4104000145196913 l0,0 l0,0.21840000092983294 l0,0 q0,2.1840000092983245 0.5460000023245953,3.0576000130176544 l0,0 l0,0 q0.5376000022888312,0.8988000038266186 1.9740000084042548,0.8988000038266186 l0,0 l0.1512000006437302,0 l0,0 q1.3608000057935716,0 2.7720000118017194,-0.7476000031829007 l0,0 l0,0 q0.4032000017166138,-0.2100000008940716 0.7140000030398442,-0.4284000018239071 l0,0 zm7.106400030255318,-12.070800051391124 l0,0 l0,0 q-0.6636000028252668,0 -0.8484000036120416,-0.1848000007867814 l0,0 l0,0 q-0.29400000125170106,-0.302400001287468 -0.29400000125170106,-0.840000003576286 l0,0 l0,0 q0,-0.5376000022888312 0.0672000002861046,-0.7644000032544219 l0,0 l0,0 q0.058800000250340226,-0.23520000100135804 0.1848000007867814,-0.36120000153779985 l0,0 l0,0 q0.24360000103712307,-0.23520000100135804 0.7308000031113626,-0.23520000100135804 l0,0 l0,0 q0.4872000020742459,0 0.6972000029683231,0.05040000021457774 l0,0 l0,0 q0.2100000008940716,0.04200000017881411 0.3444000014662789,0.1848000007867814 l0,0 l0,0 q0.23520000100135804,0.23520000100135804 0.23520000100135804,0.772800003290186 l0,0 l0,0 q0,0.5376000022888312 -0.05040000021457774,0.7644000032544219 l0,0 l0,0 q-0.05040000021457774,0.23520000100135804 -0.1848000007867814,0.3696000015735628 l0,0 l0,0 q-0.24360000103712307,0.24360000103712307 -0.8820000037551,0.24360000103712307 zm-0.7812000033259392,14.523600061833857 l-0.016800000071525576,-11.718000049889087 l1.612800006866455,0 l0,11.718000049889087 l-1.5960000067949296,0 zm11.877600050568581,-10.374000044167042 l0,0 l0,0 q-1.9236000081896782,0 -3.914400016665459,1.1340000048279764 l0,0 l0,9.240000039339066 l-1.6296000069379808,0 l0,-11.718000049889087 l1.4364000061154365,0 l0.159600000679495,1.2180000051856041 l0,0 q1.066800004541874,-0.8820000037551 2.6628000113368033,-1.2516000053286553 l0,0 l0,0 q0.6552000027895091,-0.159600000679495 1.5288000065088276,-0.159600000679495 l0,0 l0,0 q0.8736000037193364,0 1.545600006580353,0.2016000008583069 l0,0 l0,0 q0.6720000028610303,0.2016000008583069 1.058400004506111,0.6468000027537437 l0,0 l0,0 q0.7224000030756,0.7980000033974648 0.7224000030756,2.906400012373924 l0,0 l0,8.156400034725667 l-1.654800007045269,0 l0,-7.854000033438205 l0,0 q0,-1.4196000060439111 -0.277200001180172,-1.8312000077962878 l0,0 l0,0 q-0.277200001180172,-0.4032000017166138 -0.6552000027895091,-0.5460000023245953 l0,0 l0,0 q-0.37800000160932906,-0.1428000006079674 -0.982800004184246,-0.1428000006079674 zm16.573200070559977,8.34960003554821 l0.47880000203848216,1.4028000059723855 l0,0 q-2.0328000086545943,0.8148000034690002 -4.49400001913309,0.8148000034690002 l0,0 l0,0 q-1.4280000060796738,0 -2.4192000102996825,-0.29400000125170106 l0,0 l0,0 q-1.5876000067591671,-0.45360000193119054 -2.108400008976459,-1.8648000079393388 l0,0 l0,0 q-0.4872000020742459,-1.3356000056862831 -0.4872000020742459,-3.939600016772747 l0,0 l0,-0.5040000021457672 l0,0 q0,-3.116400013267994 1.3020000055432321,-4.376400018632412 l0,0 l0,0 q1.17600000500679,-1.1256000047922134 3.9060000166296964,-1.1256000047922134 l0,0 l0,0 q2.6712000113725662,0 3.6456000155210493,1.3188000056147575 l0,0 l0,0 q0.4704000020027163,0.6384000027179719 0.6216000026464594,1.5540000066161168 l0,0 l0,0 q0.1512000006437302,0.9072000038623811 0.1512000006437302,1.7304000073671344 l0,0 l0,0 q0,1.2936000055074692 -0.058800000250340226,1.9992000085115431 l0,0 l0,0 q-1.3860000059008608,0.058800000250340226 -2.486400010585785,0.058800000250340226 l0,0 l0,0 q0,0 -1.5876000067591671,0 l0,0 l0,0 q-2.4780000105500224,0 -3.8136000162363057,-0.2100000008940716 l0,0 l0,0 q0,2.25960000962019 0.5712000024318696,3.158400013446808 l0,0 l0,0 q0.6972000029683231,1.0920000046491622 2.7804000118374823,1.0920000046491622 l0,0 l0,0 q2.0916000089049342,0 3.9984000170230862,-0.8148000034690002 l0,0 zm-7.3500000312924385,-4.5948000195622445 l6.283200026750565,0 l0,-0.9408000040054326 l0,0 q0,-1.545600006580353 -0.5964000025391663,-2.2092000094056132 l0,0 l0,0 q-0.6720000028610303,-0.7308000031113626 -2.3100000098347664,-0.7308000031113626 l0,0 l0,0 q-1.9740000084042548,0 -2.688000011444095,0.8568000036478142 l0,0 l0,0 q-0.6888000029325578,0.8148000034690002 -0.6888000029325578,3.024000012874603 l0,0 zm20.77320008844137,4.5948000195622445 l0.4872000020742459,1.4028000059723855 l0,0 q-2.0412000086903572,0.8148000034690002 -4.502400019168854,0.8148000034690002 l0,0 l0,0 q-1.4280000060796738,0 -2.4192000102996825,-0.29400000125170106 l0,0 l0,0 q-1.5876000067591671,-0.45360000193119054 -2.108400008976459,-1.8648000079393388 l0,0 l0,0 q-0.47880000203848216,-1.3356000056862831 -0.47880000203848216,-3.939600016772747 l0,0 l0,-0.5040000021457672 l0,0 q0,-3.116400013267994 1.3020000055432321,-4.376400018632412 l0,0 l0,0 q1.1676000049710276,-1.1256000047922134 3.9060000166296964,-1.1256000047922134 l0,0 l0,0 q2.6628000113368033,0 3.6372000154852877,1.3188000056147575 l0,0 l0,0 q0.47880000203848216,0.6384000027179719 0.6300000026822165,1.5540000066161168 l0,0 l0,0 q0.1512000006437302,0.9072000038623811 0.1512000006437302,1.7304000073671344 l0,0 l0,0 q0,1.2936000055074692 -0.058800000250340226,1.9992000085115431 l0,0 l0,0 q-1.3860000059008608,0.058800000250340226 -2.4948000106215473,0.058800000250340226 l0,0 l0,0 q0,0 -1.5792000067234042,0 l0,0 l0,0 q-2.486400010585785,0 -3.8220000162720678,-0.2100000008940716 l0,0 l0,0 q0,2.25960000962019 0.5712000024318696,3.158400013446808 l0,0 l0,0 q0.6972000029683231,1.0920000046491622 2.7888000118732457,1.0920000046491622 l0,0 l0,0 q2.0832000088691713,0 3.9900000169873238,-0.8148000034690002 l0,0 zm-7.3500000312924385,-4.5948000195622445 l6.291600026786328,0 l0,-0.9408000040054326 l0,0 q0,-1.545600006580353 -0.6048000025749297,-2.2092000094056132 l0,0 l0,0 q-0.6636000028252668,-0.7308000031113626 -2.3100000098347664,-0.7308000031113626 l0,0 l0,0 q-1.9656000083685072,0 -2.688000011444095,0.8568000036478142 l0,0 l0,0 q-0.6888000029325578,0.8148000034690002 -0.6888000029325578,3.024000012874603 l0,0 zm16.287600069344045,-3.6708000156283402 l0,0 l0,0 q-1.260000005364418,0 -2.5620000109076497,1.260000005364418 l0,0 l0,9.030000038444996 l-1.6380000069737437,0 l0,-11.718000049889087 l1.4364000061154365,0 l0.159600000679495,1.5624000066518788 l0,0 q0.46200000196695695,-0.7224000030756 0.9996000042557781,-1.1256000047922134 l0,0 l0,0 q0.5376000022888312,-0.4032000017166138 0.8820000037551,-0.4956000021100048 l0,0 l0,0 q0.4872000020742459,-0.13440000057220758 0.9324000039696694,-0.13440000057220758 l0,0 l0,0 q0.44520000189543196,0 1.1172000047564508,0.17640000075101891 l0,0 l-0.1512000006437302,1.5624000066518788 l0,0 q-0.5040000021457672,-0.11760000050068105 -1.17600000500679,-0.11760000050068105 z" stroke-width="0"/>
   </g>
  </g><ellipse ry="5.858153820037842" rx="5.858153820037842" cy="43.988134264945984" cx="57.938524530047516" stroke-width="0" fill="#ffffff" class="" fill-opacity="1" id="svg_3"/>
  <ellipse stroke="#000" ry="5.858153820037842" rx="5.858153820037842" id="svg_13" cy="44.01795959472656" cx="45.23341369628906" stroke-width="0" fill="#eb1a1a" class="" fill-opacity="1"/>
  <ellipse ry="5.858153820037842" rx="5.858153820037842" id="svg_14" cy="44.01795959472656" cx="94.48965454101562" stroke-width="0" fill="#eb1a1a" class="" fill-opacity="1"/>
  <ellipse ry="5.858153820037842" rx="5.858153820037842" id="svg_15" cy="44.01795959472656" cx="82.41485595703125" stroke-width="0" fill="#ffffff" class="" fill-opacity="1"/>
  <ellipse ry="3" rx="3" id="svg_16" cy="44.01795959472656" cx="57.787261962890625" stroke-width="0" fill="#242424" class="" fill-opacity="1"/><ellipse ry="3" rx="3" cy="43.77986454963684" cx="81.95392858982086" stroke-width="0" fill="#242424" class="" fill-opacity="1" id="svg_4"/>
  <ellipse stroke="#000" ry="5.858153820037842" rx="5.858153820037842" id="svg_17" cy="44.01795959472656" cx="70.22029113769531" stroke-width="0" fill="#ffffff" class="" fill-opacity="1"/>
  <ellipse stroke="#000" ry="5.858153820037842" rx="5.858153820037842" id="svg_18" cy="56.051849365234375" cx="45.23341369628906" stroke-width="0" fill="#eb1a1a" class="" fill-opacity="1"/>
  <ellipse ry="5.858153820037842" rx="5.858153820037842" id="svg_19" cy="56.05183410644531" cx="94.48965454101562" stroke-width="0" fill="#eb1a1a" class="" fill-opacity="1"/>
  <ellipse ry="5.858153820037842" rx="5.858153820037842" id="svg_20" cy="56.051849365234375" cx="82.41485595703125" stroke-width="0" fill="#eb1a1a" class="" fill-opacity="1"/>
  <ellipse ry="5.858153820037842" rx="5.858153820037842" id="svg_21" cy="56.051849365234375" cx="57.78672790527344" stroke-width="0" fill="#eb1a1a" class="" fill-opacity="1"/>
  <ellipse ry="5.858153820037842" rx="5.858153820037842" id="svg_22" cy="56.051849365234375" cx="70.22029113769531" stroke-width="0" fill="#eb1a1a" class="" fill-opacity="1"/>
  <ellipse stroke="#000" ry="5.858153820037842" rx="5.858153820037842" id="svg_23" cy="68.36210632324219" cx="45.23341369628906" stroke-width="0" fill="#eb1a1a" class="" fill-opacity="1"/>
  <ellipse stroke="#000" ry="5.858153820037842" rx="5.858153820037842" id="svg_24" cy="68.36210632324219" cx="94.48965454101562" stroke-width="0" fill="#fff" class=""/>
  <ellipse ry="5.858153820037842" rx="5.858153820037842" id="svg_25" cy="68.36210632324219" cx="82.41485595703125" stroke-width="0" fill="#ffffff" class="" fill-opacity="1"/>
  <ellipse ry="5.858153820037842" rx="5.858153820037842" id="svg_26" cy="68.36210632324219" cx="57.787261962890625" stroke-width="0" fill="#ffffff" class="" fill-opacity="1"/>
  <ellipse stroke="#000" ry="5.858153820037842" rx="5.858153820037842" id="svg_27" cy="68.36210632324219" cx="70.22029113769531" stroke-width="0" fill="#eb1a1a" class="" fill-opacity="1"/>
  <ellipse stroke="#000" ry="5.858153820037842" rx="5.858153820037842" id="svg_28" cy="80.39599609375" cx="45.23341369628906" stroke-width="0" fill="#eb1a1a" class="" fill-opacity="1"/>
  <ellipse ry="5.858153820037842" rx="5.858153820037842" id="svg_29" cy="80.39599609375" cx="94.48965454101562" stroke-width="0" fill="#ffffff" class="" fill-opacity="1"/>
  <ellipse stroke="#000" ry="5.858153820037842" rx="5.858153820037842" id="svg_30" cy="80.39599609375" cx="82.41485595703125" stroke-width="0" fill="#eb1a1a" class="" fill-opacity="1"/>
  <ellipse ry="5.858153820037842" rx="5.858153820037842" id="svg_31" cy="80.39599609375" cx="57.78672790527344" stroke-width="0" fill="#ffffff" class="" fill-opacity="1"/>
  <ellipse stroke="#000" ry="5.858153820037842" rx="5.858153820037842" id="svg_32" cy="80.39599609375" cx="70.22029113769531" stroke-width="0" fill="#ffffff" class="" fill-opacity="1"/>
  <ellipse stroke="#000" ry="5.858153820037842" rx="5.858153820037842" id="svg_33" cy="92.56805419921875" cx="45.23341369628906" stroke-width="0" fill="#eb1a1a" class="" fill-opacity="1"/>
  <ellipse stroke="#000" ry="5.858153820037842" rx="5.858153820037842" id="svg_34" cy="92.56805419921875" cx="94.48965454101562" stroke-width="0" fill="#eb1a1a" class="" fill-opacity="1"/>
  <ellipse stroke="#000" ry="5.858153820037842" rx="5.858153820037842" id="svg_35" cy="92.56805419921875" cx="70.22029113769531" stroke-width="0" fill="#ffffff" class="" fill-opacity="1"/>
  <ellipse ry="5.858153820037842" rx="5.858153820037842" id="svg_36" cy="31.845870971679688" cx="82.41485595703125" stroke-width="0" fill="#eb1a1a" class="" fill-opacity="1"/>
  <ellipse ry="5.858153820037842" rx="5.858153820037842" id="svg_37" cy="31.84588623046875" cx="57.787261962890625" stroke-width="0" fill="#eb1a1a" class="" fill-opacity="1"/>
  <ellipse ry="5.858153820037842" rx="5.858153820037842" id="svg_38" cy="31.845870971679688" cx="70.22029113769531" stroke-width="0" fill="#eb1a1a" class="" fill-opacity="1"/>
 </g>
</svg>